<?xml version="1.0" encoding="utf-8"?><svg viewBox="0 0 20.44 18.21" xmlns="http://www.w3.org/2000/svg" xmlns:xlink="http://www.w3.org/1999/xlink"><style>:root>svg{display:none}:root>svg:target{display:block}</style><svg viewBox="0 0 17.68 16.92" id="fb" xmlns="http://www.w3.org/2000/svg"><path d="M.976 16.916c-.539 0-.976-.418-.976-.934V.933c0-.516.437-.934.976-.934h15.733c.539 0 .976.418.976.934v15.049c0 .516-.437.934-.976.934h-4.507v-6.551h2.299l.344-2.553h-2.643v-1.63c0-.739.215-1.243 1.323-1.243l1.413-.001V2.655a19.718 19.718 0 00-2.059-.101c-2.038 0-3.433 1.19-3.433 3.375v1.883H7.141v2.553h2.305v6.551H.976z"/></svg><svg viewBox="0 0 17 17" id="in" xmlns="http://www.w3.org/2000/svg"><path fill-rule="evenodd" clip-rule="evenodd" d="M14.486 14.486h-2.52V10.54c0-.94-.017-2.15-1.31-2.15-1.313 0-1.513 1.025-1.513 2.083v4.013H6.625V6.373h2.417v1.11h.034c.336-.639 1.16-1.311 2.386-1.311 2.553 0 3.024 1.68 3.024 3.865v4.449zM3.782 5.265a1.461 1.461 0 110-2.925 1.462 1.462 0 010 2.925zm-1.263 9.22h2.524V6.374H2.519v8.113zM15.742 0H1.254C.562 0 0 .549 0 1.226v14.547C0 16.45.562 17 1.254 17h14.488c.694 0 1.258-.55 1.258-1.227V1.226C17 .549 16.436 0 15.742 0z"/></svg><svg viewBox="0 0 19.03 18.21" id="inst" xmlns="http://www.w3.org/2000/svg"><path d="M9.518 0c2.585 0 2.909.01 3.924.055 1.013.044 1.705.198 2.31.423a4.697 4.697 0 011.686 1.05 4.445 4.445 0 011.098 1.613c.235.579.396 1.241.442 2.21.046.971.057 1.281.057 3.754s-.011 2.783-.057 3.754c-.046.969-.207 1.631-.442 2.21a4.453 4.453 0 01-1.098 1.613 4.697 4.697 0 01-1.686 1.05c-.605.225-1.297.379-2.31.423-1.015.044-1.339.055-3.924.055s-2.909-.01-3.924-.055c-1.013-.044-1.705-.198-2.31-.423a4.697 4.697 0 01-1.686-1.05A4.445 4.445 0 01.5 15.069c-.235-.579-.396-1.241-.442-2.21-.046-.971-.057-1.281-.057-3.754s.011-2.783.057-3.754C.104 4.382.265 3.72.5 3.141a4.453 4.453 0 011.098-1.613A4.697 4.697 0 013.284.478C3.889.253 4.581.099 5.594.055 6.609.011 6.933 0 9.518 0zm0 1.64c-2.542 0-2.843.009-3.846.053-.928.04-1.432.189-1.767.313a2.958 2.958 0 00-1.094.681 2.82 2.82 0 00-.712 1.047c-.13.321-.285.803-.328 1.691-.046.96-.056 1.248-.056 3.679s.01 2.719.056 3.679c.042.888.197 1.37.328 1.691.173.425.379.728.712 1.047.333.319.65.516 1.094.681.335.125.839.273 1.767.313 1.004.044 1.305.053 3.846.053 2.542 0 2.843-.009 3.846-.053.928-.04 1.432-.189 1.767-.313a2.958 2.958 0 001.094-.681 2.82 2.82 0 00.712-1.047c.13-.321.285-.803.328-1.691.046-.96.056-1.248.056-3.679s-.01-2.719-.056-3.679c-.042-.888-.197-1.37-.328-1.691a2.82 2.82 0 00-.712-1.047 2.958 2.958 0 00-1.094-.681c-.335-.125-.839-.273-1.767-.313-1.004-.044-1.305-.053-3.846-.053zm0 2.789c2.699 0 4.888 2.093 4.888 4.675s-2.188 4.675-4.888 4.675c-2.699 0-4.888-2.093-4.888-4.675s2.188-4.675 4.888-4.675zm0 7.71c1.752 0 3.173-1.359 3.173-3.035 0-1.676-1.42-3.035-3.173-3.035-1.752 0-3.173 1.359-3.173 3.035 0 1.676 1.42 3.035 3.173 3.035zm6.223-7.895c0 .603-.511 1.093-1.142 1.093-.631 0-1.142-.489-1.142-1.093 0-.603.511-1.093 1.142-1.093.631 0 1.142.489 1.142 1.093z"/></svg><svg viewBox="0 0 17 17" id="pi" xmlns="http://www.w3.org/2000/svg"><g clip-path="url(#da)"><path d="M8.5 17a8.5 8.5 0 100-17 8.5 8.5 0 000 17z"/><path d="M8.5 0A8.5 8.5 0 000 8.5a8.503 8.503 0 005.4 7.92c-.076-.672-.14-1.708.029-2.442.154-.665.993-4.226.993-4.226s-.252-.51-.252-1.259c0-1.182.686-2.064 1.54-2.064.727 0 1.077.546 1.077 1.197 0 .727-.462 1.818-.707 2.833-.203.846.427 1.539 1.26 1.539 1.51 0 2.672-1.595 2.672-3.89 0-2.036-1.462-3.456-3.554-3.456-2.42 0-3.84 1.812-3.84 3.687 0 .728.28 1.511.629 1.938.07.084.077.16.056.245-.063.266-.21.846-.238.965-.035.154-.126.19-.287.112-1.063-.497-1.728-2.043-1.728-3.295 0-2.68 1.945-5.142 5.618-5.142 2.945 0 5.24 2.099 5.24 4.911 0 2.931-1.847 5.29-4.408 5.29-.86 0-1.672-.449-1.944-.98l-.532 2.022c-.189.741-.707 1.665-1.057 2.231a8.536 8.536 0 002.519.378 8.5 8.5 0 008.5-8.5A8.482 8.482 0 008.5 0z"/></g><defs><clipPath id="da"><path d="M0 0h17v17H0z"/></clipPath></defs></svg><svg viewBox="0 0 19 16" id="tw" xmlns="http://www.w3.org/2000/svg"><path d="M16.762 2.53A4.024 4.024 0 0018.476.296a7.631 7.631 0 01-2.477.979A3.825 3.825 0 0013.154 0c-2.151 0-3.897 1.809-3.897 4.039 0 .317.033.624.1.92C6.117 4.79 3.246 3.184 1.322.737A4.143 4.143 0 00.795 2.77c0 1.401.688 2.637 1.734 3.362a3.799 3.799 0 01-1.767-.504v.05c0 1.958 1.344 3.591 3.128 3.96a3.671 3.671 0 01-1.027.142c-.251 0-.496-.024-.734-.072.496 1.604 1.935 2.772 3.641 2.804a7.649 7.649 0 01-5.771 1.675A10.772 10.772 0 005.974 16c7.171 0 11.091-6.154 11.091-11.492l-.01-.524a8.041 8.041 0 001.944-2.091 7.56 7.56 0 01-2.238.636l.001.001z"/></svg><svg viewBox="0 0 20.44 14.22" id="yt" xmlns="http://www.w3.org/2000/svg"><path d="M8.109 9.731l-.001-5.68 5.522 2.85-5.521 2.83zm12.125-6.664s-.2-1.393-.812-2.006c-.777-.805-1.648-.809-2.048-.856C14.514 0 10.224 0 10.224 0h-.009s-4.29 0-7.15.205c-.4.047-1.27.051-2.048.856-.612.613-.812 2.006-.812 2.006S.001 4.703.001 6.339v1.534c0 1.636.204 3.272.204 3.272s.199 1.393.812 2.006c.778.805 1.799.78 2.254.864 1.635.155 6.949.203 6.949.203s4.294-.006 7.154-.211c.399-.047 1.27-.051 2.048-.857.612-.613.812-2.006.812-2.006s.204-1.635.204-3.272V6.338a30.33 30.33 0 00-.204-3.272v.001z"/></svg></svg>